<?xml version="1.0" encoding="UTF-8"?><svg id="Calque_1" xmlns="http://www.w3.org/2000/svg" width="100" height="100" viewBox="0 0 100 100"><rect width="100" height="100" rx="11.26" ry="11.26" fill="#416f75"/><path d="M94.32,89.77l-3.81-18.62c-.46-2.25-1.9-3.7-4.15-3.24-2.25.46-4.46,2.66-4,4.91l2.1,10.29-11.74-5.8c-1.01-.5-2.17-.57-3.23-.19-1.17.41-2.37.77-3.61,1.09-.18,1.67-.51,4.9-.68,6.5-.08.79-.16,1.53-.23,2.24,1.91-.39,3.78-.85,5.58-1.42l17.83,8.81c.58.29,1.21.43,1.84.43.9,0,1.8-.29,2.54-.87,1.26-.97,1.85-2.57,1.54-4.13Z" fill="#f7f5f5"/><path d="M13.92,49.58c0-13.56,8.62-23.78,22.55-28.07l.42-8.71C17.9,17.57,5.6,31.37,5.6,49.58c0,15.96,9.45,28.53,24.57,34.61.3-2.23.62-4.35.96-6.35.13-.77.25-1.46.36-2.07-10.97-5.02-17.57-14.32-17.57-26.18Z" fill="#f7f5f5"/><path d="M83.4,30.92c1.55,1.7,3.42,2.58,5.12,1.03,1.7-1.55,2.58-4.94,1.03-6.64-4.03-4.42-9.18-7.88-15.16-10.3l-.74,4.49c-.23,1.35-.46,2.66-.68,3.96,4.09,1.89,7.62,4.39,10.42,7.46Z" fill="#f7f5f5"/><path d="M41.11,60.86l1.79.19h.69s1.42.16,1.42.16l3.87.34,1.84.19,1.89.14.91.15,2.76.28c.38.04.73.07,1.06.09.11,0,.21,0,.32.01.21,0,.41.02.6.02.04,0,.08,0,.12,0,.17,0,.34,0,.49-.01h.01c.2,0,.38-.03.55-.05.05,0,.09-.01.13-.02.13-.02.25-.05.36-.08.03,0,.06-.01.09-.02.12-.04.23-.08.33-.14.02-.01.03-.02.05-.03.07-.04.13-.09.17-.14.02-.02.03-.04.05-.05.05-.07.09-.14.1-.22,1.68-8.57,4.08-21.95,7.2-40.13.16-.96.33-1.93.5-2.92l.88-5.34.88-5.38c.03-.85-1.05-1.39-3.23-1.61-5.65-.51-9.42-.76-11.31-.76l-2.97-.02-2.57-.27c-.3-.02-.59-.04-.87-.06-.06,0-.11,0-.17-.01-.22-.01-.43-.03-.64-.04-.07,0-.14,0-.21-.01-.19-.01-.37-.02-.55-.03-.07,0-.14,0-.22-.01-.17,0-.33-.02-.49-.02-.07,0-.14,0-.21,0-.16,0-.31-.01-.46-.02-.06,0-.11,0-.17,0-.16,0-.31,0-.46-.01-.04,0-.08,0-.12,0-.18,0-.36,0-.53,0-.03,0-.06,0-.09,0-.15,0-.3,0-.44,0-.06,0-.12,0-.18,0-.1,0-.19,0-.28.01-.06,0-.12,0-.17.01-.08,0-.16.01-.23.02-.05,0-.1.01-.15.02-.06,0-.13.01-.19.02-.04,0-.08.01-.12.02-.05,0-.1.02-.15.03-.03,0-.06.02-.09.02-.04.01-.08.03-.11.04-.02,0-.05.02-.06.03-.03.02-.05.03-.08.05-.01,0-.03.02-.03.03-.02.03-.04.06-.04.09l-.36,6.33-.04.65-.38,7.84-.73,15.01c-.06.92-.13,2.29-.19,4.1-.06,1.81-.1,2.95-.12,3.41l-.31,7.51c-.02.46-.13,1.67-.33,3.62-.35,3.99-.03,6.32.95,7Z" fill="#ea5653"/><path d="M57.35,75.04c-2.35-.34-8.98-1.07-19.89-2.2-.02,0-.05.12-.1.37-.14.64-.41,2.14-.81,4.47-.06.34-.12.68-.18,1.05-.39,2.27-.74,4.68-1.06,7.22-.24,1.86-.47,3.79-.68,5.8l.69,1,.37.91c.77.08,1.98.17,3.64.26l.37.04,9.31.73.92.09c.7.04,1.37.07,1.99.1.07,0,.13,0,.2,0,.23.01.46.02.68.03.11,0,.21,0,.31.01.17,0,.35.01.51.02.12,0,.24,0,.36.01.14,0,.27,0,.4.01.13,0,.26,0,.39.01.11,0,.21,0,.31,0,.14,0,.27,0,.39,0,.09,0,.17,0,.26,0,.12,0,.24,0,.36,0,.05,0,.11,0,.16,0,.03,0,.05,0,.07,0,.13,0,.25,0,.37,0,.07,0,.13,0,.2,0,.11,0,.22,0,.32,0,.06,0,.12,0,.18,0,.1,0,.18,0,.27-.01.06,0,.11,0,.17,0,.08,0,.15-.01.22-.02.05,0,.1,0,.14-.01.07,0,.12-.01.18-.02.04,0,.08,0,.12-.02.05,0,.1-.02.14-.03.03,0,.07-.01.09-.02.04-.01.08-.02.11-.04.02,0,.04-.01.06-.02.05-.02.08-.04.11-.06.06-1.48.24-3.8.55-6.94.11-1.11.23-2.32.36-3.64.21-2.02.38-3.64.51-4.87.19-1.84.3-2.79.31-2.85.03-.09.04-.16.04-.2.05-.46-1.11-.86-3.46-1.2Z" fill="#ea5653"/></svg>