<?xml version="1.0" standalone="no"?>
<!DOCTYPE svg PUBLIC "-//W3C//DTD SVG 20010904//EN"
 "http://www.w3.org/TR/2001/REC-SVG-20010904/DTD/svg10.dtd">
<svg version="1.0" xmlns="http://www.w3.org/2000/svg"
 width="500.000000pt" height="500.000000pt" viewBox="0 0 500.000000 500.000000"
 preserveAspectRatio="xMidYMid meet">

<g transform="translate(0.000000,500.000000) scale(0.100000,-0.100000)"
fill="#000000" stroke="none">
<path d="M394 4985 c-96 -21 -172 -63 -244 -135 -74 -74 -114 -148 -136 -248
-21 -100 -21 -4104 0 -4204 22 -100 62 -174 136 -248 74 -74 148 -114 248
-136 100 -21 4104 -21 4204 0 100 22 174 62 248 136 74 74 114 148 136 248 21
100 21 4104 0 4204 -22 100 -62 174 -136 248 -74 74 -148 114 -248 136 -97 20
-4114 20 -4208 -1z m1563 -1187 l-10 -166 -76 -27 c-319 -114 -569 -328 -695
-596 -122 -258 -133 -583 -31 -855 94 -250 294 -462 563 -598 46 -23 52 -30
46 -49 -4 -12 -17 -84 -28 -159 -12 -75 -24 -139 -27 -142 -8 -9 -206 91 -297
150 -394 257 -610 611 -652 1067 -26 281 39 584 177 822 144 250 377 460 659
596 111 54 365 142 375 131 4 -4 2 -82 -4 -174z m1613 21 c198 -102 421 -281
456 -365 28 -67 3 -164 -59 -224 -25 -24 -39 -30 -74 -30 -54 0 -78 15 -175
112 -81 80 -202 166 -300 214 -34 16 -58 35 -58 44 0 8 12 80 25 160 14 80 25
149 25 153 0 14 39 -2 160 -64z m418 -2004 c16 -13 34 -37 41 -52 6 -16 47
-204 91 -419 69 -341 78 -396 69 -430 -20 -71 -89 -124 -162 -124 -25 0 -140
53 -395 179 l-361 179 -108 -29 c-59 -16 -110 -29 -112 -29 -4 0 3 91 20 247
l12 101 82 26 c46 14 99 26 118 26 24 0 108 -35 272 -115 131 -63 239 -114
241 -112 1 1 -15 87 -37 191 -21 104 -39 202 -39 219 0 117 183 214 268 142z"/>
</g>
</svg>
