<?xml version="1.0" encoding="UTF-8"?>
<svg id="Calque_1" data-name="Calque 1" xmlns="http://www.w3.org/2000/svg" viewBox="0 0 251.35 164.64">
  <defs>
    <style>
      .cls-1 {
        fill: #416f75;
      }

      .cls-2 {
        fill: #ea5653;
      }
    </style>
  </defs>
  <path class="cls-1" d="M223.3,164.64c-.73,0-1.46-.14-2.16-.42l-45.83-18.72c-15.66,3.84-33.01,5.79-51.61,5.79-35.38,0-65.87-6.97-88.15-20.15C12.63,117.56,0,97.85,0,75.64S12.63,33.72,35.56,20.15C57.84,6.97,88.33,0,123.71,0c41.61,0,76.76,9.81,98.99,27.61,2.46,1.97,1.85,6.56-.12,9.02-1.97,2.46-4.56,1.85-7.02-.12-20.21-16.19-52.83-25.11-91.86-25.11-32.87,0-62.11,6.59-82.34,18.56-13.67,8.09-29.96,22.58-29.96,45.67s16.29,37.58,29.96,45.67c20.23,11.97,49.47,18.56,82.34,18.56,18.37,0,35.4-1.98,50.61-5.89,1.19-.3,2.44-.22,3.58.24l36.48,14.9-7.13-23.6c-.91-3.02,1.79-6.2,4.81-7.11,3.02-.91,5.2.79,6.11,3.81l10.59,35.06c.64,2.11,0,4.39-1.62,5.87-1.07.97-2.44,1.48-3.84,1.48h0Z"/>
  <g>
    <path class="cls-1" d="M23.17,73.6c.54-5.13,1.44-9,2.7-11.59,2.41-5,6-8.55,10.78-10.64,4.26-1.87,8.88-2.8,13.88-2.8,8.38,0,14.49,2.3,18.34,6.89,2.32,2.72,3.66,6.11,4.02,10.17l.3,3.18c-.38.36-2.8.54-7.26.54l-5.37-.07h-.44l-2.94-.07-.81.04h-.68c-.63,0-1.11-.92-1.44-2.77-.33-1.85-.82-3.07-1.49-3.66-.67-.6-1.44-.89-2.31-.89s-1.65.16-2.31.47c-.66.32-1.21.69-1.64,1.13-.43.44-.79,1.06-1.08,1.88-.54,1.4-.87,2.88-.98,4.44-.11,1.57-.17,3.32-.17,5.25v.81l-.14,3.41c0,6.22,1.76,9.39,5.27,9.53.9,0,1.53-.16,1.89-.47.97-.86,1.81-2.58,2.53-5.17.16-.54.35-.98.57-1.32h1.28l1.55.03h5.47l1.66-.03,3.21.03h1.96l1.99.04h1.35c.27.02.46.26.57.71l-.1,1.11c-.2,2.66-.82,5.07-1.86,7.23-1.92,3.96-4.93,6.91-9.04,8.83-4.11,1.93-8.62,2.89-13.53,2.89-8.58,0-15.02-2.53-19.32-7.6-4.3-5.07-6.45-12.24-6.45-21.52Z"/>
    <path class="cls-1" d="M78.03,78.19l.07-13.88v-14.09s.26-.03.64-.03h1.25c.47,0,.83-.02,1.08-.07l4.19-.17c1.08-.05,1.91-.07,2.5-.07h5.37l9.93-.24c1.35,0,2.84.05,4.46.17h.24c.77-.04,1.25-.07,1.45-.07,4.5,0,8.36,1.43,11.55,4.29,1.55,1.38,2.78,3.14,3.68,5.3.9,2.16,1.35,4.4,1.35,6.71s-.24,4.27-.71,5.89c-.47,1.62-1.08,3-1.82,4.12-2.97,4.55-8.73,7.21-17.26,7.97l-7.3.3c-.23,5.41-.34,9.61-.34,12.6l.03,1.05v2.74c-.09.32-.26.53-.51.64l-19.29.3c-.38-1.08-.57-2.81-.57-5.2v-18.28ZM107.59,63.7c-.9-2.37-3.29-3.62-7.16-3.78-.56-.02-1.34-.03-2.33-.03-.27,0-.44,3.32-.51,9.96l-.07,2.53.1,2.03c2.77-.04,5.21-.63,7.31-1.76,2.11-1.13,3.16-3.18,3.16-6.15,0-1.26-.17-2.2-.51-2.8Z"/>
    <path class="cls-1" d="M129.51,58.7l-.17-8.88s.1.03.24.1c17.12-.29,30.01-.45,38.68-.47.09.04.16.11.2.2v9.53c0,.92-.02,1.68-.07,2.26-.11.36-.78.54-1.99.54h-.24c-5.45,0-11.12-.09-17.03-.27,0,.2-.03.56-.08,1.08-.06.52-.1.89-.12,1.12l-.17,1.28c-.11.86-.19,2.34-.24,4.46l10.47-.24c1.8-.04,3.11-.07,3.92-.07h.54c1.37,0,2.27.04,2.7.12.43.08.64.31.64.69l-.03.27v.81l.17,8.68-.03.03v-.03c-6.85.34-12.32.51-16.42.51h-1.59v8.18l18.34-.57c1.01,0,1.66.15,1.93.44-.02.59-.04,1.42-.04,2.5l.24,9.19c0,.56-.25.89-.74.98l-11.22-.1c-2.21,0-6.6.08-13.17.24l-5.54.13c-3.92.13-6.82.2-8.72.2l-.1-.07h.03c-.23-.22-.44-.44-.64-.64v-1.18l.2-36.11.03-4.9Z"/>
    <path class="cls-1" d="M173.74,78.19l.07-13.88v-14.09s.26-.03.64-.03h1.25c.47,0,.83-.02,1.08-.07l4.19-.17c1.08-.05,1.91-.07,2.5-.07h5.37l9.93-.24c1.35,0,2.84.05,4.46.17h.24c.77-.04,1.25-.07,1.45-.07,4.5,0,8.36,1.43,11.55,4.29,1.55,1.38,2.78,3.14,3.68,5.3.9,2.16,1.35,4.4,1.35,6.71s-.24,4.27-.71,5.89c-.47,1.62-1.08,3-1.83,4.12-2.97,4.55-8.73,7.21-17.26,7.97l-7.3.3c-.23,5.41-.34,9.61-.34,12.6l.03,1.05v2.74c-.09.32-.26.53-.51.64l-19.29.3c-.38-1.08-.57-2.81-.57-5.2v-18.28ZM203.3,63.7c-.9-2.37-3.29-3.62-7.16-3.78-.56-.02-1.34-.03-2.33-.03-.27,0-.44,3.32-.51,9.96l-.07,2.53.1,2.03c2.77-.04,5.21-.63,7.31-1.76,2.11-1.13,3.16-3.18,3.16-6.15,0-1.26-.17-2.2-.51-2.8Z"/>
  </g>
  <path class="cls-2" d="M244.62,96.23s-.01.07-.03.14c-.02.07-.21,1.91-.59,5.53-.37,3.62-.59,6.15-.65,7.59-.27.25-2.45.26-6.53.03l-.66-.07-6.68-.52-.26-.03c-1.19-.07-2.06-.13-2.61-.19l-.27-.65-.49-.72c.35-3.4.77-6.51,1.25-9.33.48-2.82.74-4.23.79-4.22,7.82.81,12.58,1.34,14.26,1.58,1.69.24,2.51.53,2.48.86ZM231.29,50.44l.28-5c.03-.33,1.83-.37,5.38-.11l1.85.19h2.13c1.35.01,4.06.2,8.11.56,1.56.16,2.33.54,2.31,1.15l-1.26,7.69c-2.41,14.11-4.25,24.4-5.52,30.87-.1.52-1.16.67-3.18.46l-1.98-.21-.65-.11-1.36-.1-1.32-.14-2.77-.24-1.02-.11h-.5s-1.29-.14-1.29-.14c-.71-.49-.93-2.16-.68-5.02.14-1.4.22-2.27.23-2.6l.22-5.38c.01-.33.04-1.15.09-2.44.05-1.3.09-2.28.14-2.94l.79-16.39Z"/>
</svg>