<?xml version="1.0" encoding="UTF-8"?><svg id="a" xmlns="http://www.w3.org/2000/svg" viewBox="0 0 117.36 118.95"><path d="M117.25,112.03l-5.03-24.61c-.61-2.98-2.52-4.9-5.49-4.29-2.98.61-5.89,3.51-5.29,6.49l2.78,13.6-15.51-7.67c-1.33-.66-2.87-.75-4.26-.26-1.54.54-3.14,1.02-4.77,1.44-.24,2.21-.68,6.48-.9,8.59-.11,1.05-.21,2.02-.3,2.97,2.53-.51,5-1.13,7.38-1.88l23.57,11.64c.77.38,1.61.57,2.44.57,1.19,0,2.38-.39,3.36-1.14,1.66-1.28,2.45-3.4,2.03-5.46Z" fill="#f6f4f3"/><path d="M11,58.92c0-17.92,11.39-31.43,29.8-37.1l.56-11.51C16.26,16.62,0,34.85,0,58.92c0,21.09,12.49,37.71,32.48,45.74.39-2.94.82-5.75,1.27-8.39.17-1.02.33-1.93.47-2.74-14.5-6.63-23.22-18.93-23.22-34.61Z" fill="#f6f4f3"/><path d="M102.82,34.26c2.05,2.25,4.53,3.41,6.77,1.36,2.25-2.05,3.41-6.52,1.36-8.77-5.33-5.85-12.13-10.42-20.04-13.62l-.97,5.93c-.3,1.78-.6,3.52-.9,5.23,5.41,2.5,10.07,5.8,13.78,9.86Z" fill="#f6f4f3"/><path d="M46.93,73.82l2.37.25.92.02,1.88.19,5.11.45,2.43.25,2.5.18,1.21.2,3.65.38c.5.05.97.09,1.4.12.15,0,.28.01.42.02.28.01.55.02.79.03.05,0,.11,0,.16,0,.23,0,.44,0,.65-.02h.02c.27-.01.51-.04.73-.07.06,0,.11-.02.17-.03.17-.03.33-.06.47-.1.04-.01.08-.02.12-.03.17-.05.31-.11.43-.18.03-.01.04-.03.07-.05.09-.06.17-.12.23-.19.02-.02.04-.05.06-.07.06-.09.11-.18.13-.29,2.22-11.32,5.39-29.01,9.52-53.04.22-1.27.44-2.55.66-3.86l1.16-7.06,1.17-7.11c.04-1.12-1.39-1.83-4.26-2.13-7.46-.67-12.45-1.01-14.94-1.01l-3.93-.02-3.4-.35c-.39-.03-.77-.05-1.14-.08-.07,0-.15,0-.22-.01-.29-.02-.57-.04-.85-.05-.09,0-.18-.01-.27-.02-.25-.01-.49-.03-.72-.04-.1,0-.19,0-.29-.01-.22-.01-.44-.02-.64-.03-.09,0-.19,0-.28-.01-.21,0-.41-.02-.61-.02-.07,0-.15,0-.22,0-.21,0-.42-.01-.61-.01-.05,0-.11,0-.16,0-.24,0-.48,0-.7,0-.04,0-.07,0-.11,0-.2,0-.4,0-.58,0-.09,0-.16,0-.24,0-.13,0-.25,0-.37.01-.08,0-.15,0-.23.01-.1,0-.21.01-.3.02-.07,0-.13.01-.2.02-.09,0-.17.02-.25.03-.06,0-.11.02-.16.03-.07.01-.13.03-.2.04-.04,0-.08.02-.12.03-.06.02-.1.03-.15.05-.03.01-.06.02-.08.03-.04.02-.07.04-.1.07-.01.01-.03.02-.04.03-.03.04-.05.07-.06.11l-.47,8.36-.05.86-.5,10.37-.96,19.84c-.08,1.22-.17,3.03-.25,5.42-.08,2.39-.14,3.89-.16,4.5l-.41,9.93c-.03.61-.17,2.2-.43,4.78-.46,5.27-.04,8.35,1.26,9.25Z" fill="#e75751"/><path d="M68.39,92.56c-3.1-.45-11.87-1.42-26.29-2.91-.02,0-.07.16-.14.48-.19.85-.54,2.82-1.07,5.91-.08.44-.16.9-.24,1.39-.51,2.99-.98,6.19-1.41,9.54-.32,2.46-.62,5.01-.89,7.66l.91,1.32.49,1.2c1.01.1,2.62.22,4.82.34l.49.05,12.31.97,1.22.12c.93.05,1.81.1,2.63.13.09,0,.18,0,.27.01.31.01.61.03.9.04.14,0,.28.01.42.02.23,0,.46.02.68.03.16,0,.32,0,.48.01.18,0,.36.01.53.02.18,0,.34,0,.51.01.14,0,.28,0,.42,0,.18,0,.35,0,.52,0,.11,0,.23,0,.34,0,.16,0,.32,0,.47,0,.07,0,.15,0,.22,0,.03,0,.06,0,.1,0,.17,0,.33,0,.49,0,.09,0,.18,0,.26,0,.15,0,.29,0,.42,0,.08,0,.16,0,.24,0,.13,0,.24-.01.36-.02.07,0,.15,0,.22-.01.11,0,.2-.02.3-.02.06,0,.13,0,.19-.02.09,0,.16-.02.24-.03.05,0,.11-.01.16-.02.07-.01.13-.02.19-.04.04,0,.09-.02.12-.03.06-.01.1-.03.15-.05.02,0,.06-.02.08-.02.06-.03.11-.05.14-.08.08-1.95.32-5.02.72-9.18.14-1.47.3-3.06.48-4.8.28-2.67.5-4.81.67-6.44.25-2.43.39-3.69.41-3.76.03-.12.05-.21.06-.26.06-.61-1.46-1.13-4.57-1.58Z" fill="#e75751"/></svg>